<svg width="20" height="20" viewBox="0 0 20 20" fill="none" xmlns="http://www.w3.org/2000/svg">
<mask id="mask0_10_171" style="mask-type:luminance" maskUnits="userSpaceOnUse" x="0" y="0" width="20" height="20">
<path d="M0 0H20V20H0V0Z" fill="white"/>
</mask>
<g mask="url(#mask0_10_171)">
<mask id="mask1_10_171" style="mask-type:luminance" maskUnits="userSpaceOnUse" x="0" y="0" width="20" height="20">
<path d="M5.47992 0H14.5201C15.9737 0 17.3674 0.57739 18.3951 1.60516C19.4229 2.63265 20 4.0266 20 5.47992V14.5201C20 15.9734 19.4229 17.3674 18.3951 18.3948C17.3674 19.4226 15.9737 20 14.5201 20H5.47992C4.0266 20 2.63293 19.4226 1.60516 18.3948C0.57739 17.3674 0 15.9734 0 14.5201V5.47992C0 4.0266 0.57739 2.63265 1.60516 1.60516C2.63293 0.57739 4.0266 0 5.47992 0Z" fill="white"/>
</mask>
<g mask="url(#mask1_10_171)">
<path d="M0 0H20V20H0V0Z" fill="#4931ED"/>
</g>
</g>
<path d="M5.45716 9.98425L10.02 9.97426L9.42354 8.93108C8.35838 7.07904 6.38218 5.93225 4.23873 5.93682L4.2373 5.16934L9.45807 5.15821C11.1557 5.15479 12.7283 6.13175 13.4744 7.6864L14.5829 9.98597L10.02 9.99567L10.6166 11.0389C11.6814 12.8912 13.6576 14.038 15.8011 14.0334L15.8028 14.8006L10.582 14.8117C8.88411 14.8154 7.31148 13.8382 6.56541 12.2838L5.45716 9.98425Z" fill="white"/>
</svg>
