<svg width="1654" height="84" viewBox="0 0 1654 84" fill="none" xmlns="http://www.w3.org/2000/svg">
<rect width="1654" height="84" fill="#EEEEEE"/>
<path d="M655.096 47.18C654.056 47.18 653.156 46.955 652.396 46.505C651.646 46.045 651.066 45.41 650.656 44.6C650.246 43.78 650.041 42.835 650.041 41.765C650.041 40.685 650.246 39.74 650.656 38.93C651.066 38.11 651.646 37.47 652.396 37.01C653.156 36.55 654.056 36.32 655.096 36.32C656.326 36.32 657.331 36.62 658.111 37.22C658.891 37.82 659.386 38.66 659.596 39.74H657.826C657.686 39.13 657.386 38.645 656.926 38.285C656.466 37.925 655.851 37.745 655.081 37.745C654.031 37.745 653.201 38.105 652.591 38.825C651.981 39.535 651.676 40.515 651.676 41.765C651.676 43.005 651.981 43.98 652.591 44.69C653.201 45.4 654.031 45.755 655.081 45.755C655.851 45.755 656.466 45.585 656.926 45.245C657.386 44.905 657.686 44.44 657.826 43.85H659.596C659.386 44.89 658.891 45.705 658.111 46.295C657.331 46.885 656.326 47.18 655.096 47.18ZM664.764 47.18C664.054 47.18 663.414 47.02 662.844 46.7C662.284 46.37 661.839 45.915 661.509 45.335C661.179 44.745 661.014 44.06 661.014 43.28C661.014 42.5 661.179 41.82 661.509 41.24C661.849 40.65 662.304 40.195 662.874 39.875C663.444 39.545 664.079 39.38 664.779 39.38C665.489 39.38 666.124 39.545 666.684 39.875C667.254 40.195 667.704 40.65 668.034 41.24C668.374 41.82 668.544 42.5 668.544 43.28C668.544 44.06 668.374 44.745 668.034 45.335C667.704 45.915 667.254 46.37 666.684 46.7C666.114 47.02 665.474 47.18 664.764 47.18ZM664.764 45.815C665.144 45.815 665.494 45.72 665.814 45.53C666.144 45.34 666.409 45.06 666.609 44.69C666.809 44.31 666.909 43.84 666.909 43.28C666.909 42.72 666.809 42.255 666.609 41.885C666.419 41.505 666.159 41.22 665.829 41.03C665.509 40.84 665.159 40.745 664.779 40.745C664.399 40.745 664.044 40.84 663.714 41.03C663.394 41.22 663.134 41.505 662.934 41.885C662.734 42.255 662.634 42.72 662.634 43.28C662.634 43.84 662.734 44.31 662.934 44.69C663.134 45.06 663.394 45.34 663.714 45.53C664.034 45.72 664.384 45.815 664.764 45.815ZM670.263 50.3V39.56H671.688L671.853 40.715C672.093 40.365 672.423 40.055 672.843 39.785C673.263 39.515 673.803 39.38 674.463 39.38C675.183 39.38 675.818 39.55 676.368 39.89C676.918 40.23 677.348 40.695 677.658 41.285C677.978 41.875 678.138 42.545 678.138 43.295C678.138 44.045 677.978 44.715 677.658 45.305C677.348 45.885 676.918 46.345 676.368 46.685C675.818 47.015 675.178 47.18 674.448 47.18C673.868 47.18 673.353 47.065 672.903 46.835C672.463 46.605 672.113 46.28 671.853 45.86V50.3H670.263ZM674.178 45.8C674.858 45.8 675.418 45.57 675.858 45.11C676.298 44.64 676.518 44.03 676.518 43.28C676.518 42.79 676.418 42.355 676.218 41.975C676.018 41.595 675.743 41.3 675.393 41.09C675.043 40.87 674.638 40.76 674.178 40.76C673.498 40.76 672.938 40.995 672.498 41.465C672.068 41.935 671.853 42.54 671.853 43.28C671.853 44.03 672.068 44.64 672.498 45.11C672.938 45.57 673.498 45.8 674.178 45.8ZM679.858 47V39.56H681.283L681.418 40.97C681.678 40.48 682.038 40.095 682.498 39.815C682.968 39.525 683.533 39.38 684.193 39.38V41.045H683.758C683.318 41.045 682.923 41.12 682.573 41.27C682.233 41.41 681.958 41.655 681.748 42.005C681.548 42.345 681.448 42.82 681.448 43.43V47H679.858ZM686.426 50.3L688.211 46.385H687.776L684.836 39.56H686.561L688.841 45.065L691.226 39.56H692.906L688.106 50.3H686.426ZM694.213 47V39.56H695.638L695.773 40.97C696.033 40.48 696.393 40.095 696.853 39.815C697.323 39.525 697.888 39.38 698.548 39.38V41.045H698.113C697.673 41.045 697.278 41.12 696.928 41.27C696.588 41.41 696.313 41.655 696.103 42.005C695.903 42.345 695.803 42.82 695.803 43.43V47H694.213ZM700.812 38.15C700.512 38.15 700.262 38.06 700.062 37.88C699.872 37.69 699.777 37.455 699.777 37.175C699.777 36.895 699.872 36.665 700.062 36.485C700.262 36.295 700.512 36.2 700.812 36.2C701.112 36.2 701.357 36.295 701.547 36.485C701.747 36.665 701.847 36.895 701.847 37.175C701.847 37.455 701.747 37.69 701.547 37.88C701.357 38.06 701.112 38.15 700.812 38.15ZM700.017 47V39.56H701.607V47H700.017ZM706.751 44.72C706.361 44.72 706.001 44.675 705.671 44.585L705.026 45.215C705.136 45.285 705.271 45.345 705.431 45.395C705.591 45.445 705.816 45.49 706.106 45.53C706.396 45.57 706.791 45.61 707.291 45.65C708.281 45.74 708.996 45.98 709.436 46.37C709.876 46.75 710.096 47.26 710.096 47.9C710.096 48.34 709.976 48.755 709.736 49.145C709.506 49.545 709.141 49.865 708.641 50.105C708.151 50.355 707.521 50.48 706.751 50.48C705.711 50.48 704.866 50.28 704.216 49.88C703.576 49.49 703.256 48.895 703.256 48.095C703.256 47.785 703.336 47.475 703.496 47.165C703.666 46.865 703.931 46.58 704.291 46.31C704.081 46.22 703.896 46.125 703.736 46.025C703.586 45.915 703.451 45.805 703.331 45.695V45.335L704.621 44.015C704.041 43.515 703.751 42.86 703.751 42.05C703.751 41.56 703.866 41.115 704.096 40.715C704.336 40.305 704.681 39.98 705.131 39.74C705.581 39.5 706.121 39.38 706.751 39.38C707.171 39.38 707.561 39.44 707.921 39.56H710.696V40.61L709.376 40.685C709.616 41.095 709.736 41.55 709.736 42.05C709.736 42.55 709.616 43 709.376 43.4C709.146 43.8 708.806 44.12 708.356 44.36C707.916 44.6 707.381 44.72 706.751 44.72ZM706.751 43.475C707.211 43.475 707.581 43.355 707.861 43.115C708.151 42.865 708.296 42.515 708.296 42.065C708.296 41.605 708.151 41.255 707.861 41.015C707.581 40.775 707.211 40.655 706.751 40.655C706.281 40.655 705.901 40.775 705.611 41.015C705.331 41.255 705.191 41.605 705.191 42.065C705.191 42.515 705.331 42.865 705.611 43.115C705.901 43.355 706.281 43.475 706.751 43.475ZM704.756 47.945C704.756 48.375 704.946 48.695 705.326 48.905C705.706 49.125 706.181 49.235 706.751 49.235C707.301 49.235 707.746 49.115 708.086 48.875C708.426 48.645 708.596 48.335 708.596 47.945C708.596 47.655 708.481 47.405 708.251 47.195C708.021 46.995 707.586 46.87 706.946 46.82C706.466 46.79 706.041 46.745 705.671 46.685C705.321 46.875 705.081 47.08 704.951 47.3C704.821 47.52 704.756 47.735 704.756 47.945ZM712.114 47V36.2H713.704V40.76C713.954 40.33 714.299 39.995 714.739 39.755C715.189 39.505 715.684 39.38 716.224 39.38C717.114 39.38 717.814 39.66 718.324 40.22C718.834 40.78 719.089 41.615 719.089 42.725V47H717.514V42.89C717.514 41.45 716.939 40.73 715.789 40.73C715.189 40.73 714.689 40.94 714.289 41.36C713.899 41.78 713.704 42.38 713.704 43.16V47H712.114ZM724.082 47C723.352 47 722.772 46.825 722.342 46.475C721.912 46.115 721.697 45.48 721.697 44.57V40.895H720.422V39.56H721.697L721.892 37.67H723.287V39.56H725.387V40.895H723.287V44.57C723.287 44.98 723.372 45.265 723.542 45.425C723.722 45.575 724.027 45.65 724.457 45.65H725.312V47H724.082ZM735.725 47.075C734.695 47.075 733.785 46.85 732.995 46.4C732.215 45.94 731.605 45.31 731.165 44.51C730.735 43.7 730.52 42.775 730.52 41.735C730.52 40.695 730.735 39.775 731.165 38.975C731.605 38.175 732.215 37.55 732.995 37.1C733.785 36.64 734.695 36.41 735.725 36.41C736.755 36.41 737.66 36.64 738.44 37.1C739.23 37.55 739.845 38.175 740.285 38.975C740.725 39.775 740.945 40.695 740.945 41.735C740.945 42.775 740.725 43.7 740.285 44.51C739.845 45.31 739.23 45.94 738.44 46.4C737.66 46.85 736.755 47.075 735.725 47.075ZM735.725 46.445C736.655 46.445 737.46 46.25 738.14 45.86C738.82 45.46 739.345 44.905 739.715 44.195C740.085 43.485 740.27 42.665 740.27 41.735C740.27 40.795 740.085 39.975 739.715 39.275C739.345 38.565 738.82 38.015 738.14 37.625C737.46 37.225 736.655 37.025 735.725 37.025C734.795 37.025 733.99 37.225 733.31 37.625C732.63 38.015 732.105 38.565 731.735 39.275C731.365 39.975 731.18 40.795 731.18 41.735C731.18 42.665 731.365 43.485 731.735 44.195C732.105 44.905 732.63 45.46 733.31 45.86C733.99 46.25 734.795 46.445 735.725 46.445ZM735.74 45.185C735.13 45.185 734.575 45.05 734.075 44.78C733.585 44.5 733.19 44.105 732.89 43.595C732.6 43.075 732.455 42.45 732.455 41.72C732.455 41 732.6 40.385 732.89 39.875C733.19 39.355 733.585 38.96 734.075 38.69C734.575 38.41 735.13 38.27 735.74 38.27C736.49 38.27 737.145 38.475 737.705 38.885C738.265 39.295 738.635 39.87 738.815 40.61H737.405C737.285 40.22 737.07 39.92 736.76 39.71C736.46 39.5 736.11 39.395 735.71 39.395C735.18 39.395 734.73 39.59 734.36 39.98C733.99 40.37 733.805 40.955 733.805 41.735C733.805 42.505 733.99 43.09 734.36 43.49C734.73 43.88 735.18 44.075 735.71 44.075C736.13 44.075 736.485 43.97 736.775 43.76C737.065 43.54 737.275 43.24 737.405 42.86H738.815C738.635 43.57 738.265 44.135 737.705 44.555C737.145 44.975 736.49 45.185 735.74 45.185ZM746.495 47V36.5H748.085V41L752.225 36.5H754.19L750.305 40.685L754.28 47H752.345L749.165 41.9L748.085 43.07V47H746.495ZM758.528 47.18C757.798 47.18 757.148 47.02 756.578 46.7C756.018 46.37 755.578 45.915 755.258 45.335C754.938 44.755 754.778 44.08 754.778 43.31C754.778 42.53 754.933 41.845 755.243 41.255C755.563 40.665 756.003 40.205 756.563 39.875C757.133 39.545 757.793 39.38 758.543 39.38C759.273 39.38 759.908 39.545 760.448 39.875C760.988 40.195 761.408 40.625 761.708 41.165C762.008 41.705 762.158 42.3 762.158 42.95C762.158 43.05 762.153 43.16 762.143 43.28C762.143 43.39 762.138 43.515 762.128 43.655H756.338C756.388 44.375 756.623 44.925 757.043 45.305C757.473 45.675 757.968 45.86 758.528 45.86C758.978 45.86 759.353 45.76 759.653 45.56C759.963 45.35 760.193 45.07 760.343 44.72H761.933C761.733 45.42 761.333 46.005 760.733 46.475C760.143 46.945 759.408 47.18 758.528 47.18ZM758.528 40.685C757.998 40.685 757.528 40.845 757.118 41.165C756.708 41.475 756.458 41.945 756.368 42.575H760.568C760.538 41.995 760.333 41.535 759.953 41.195C759.573 40.855 759.098 40.685 758.528 40.685ZM764.341 50.3L766.126 46.385H765.691L762.751 39.56H764.476L766.756 45.065L769.141 39.56H770.821L766.021 50.3H764.341ZM774.703 47.18C773.763 47.18 772.988 46.95 772.378 46.49C771.768 46.03 771.418 45.42 771.328 44.66H772.933C773.013 45 773.203 45.295 773.503 45.545C773.803 45.785 774.198 45.905 774.688 45.905C775.168 45.905 775.518 45.805 775.738 45.605C775.958 45.405 776.068 45.175 776.068 44.915C776.068 44.535 775.913 44.28 775.603 44.15C775.303 44.01 774.883 43.885 774.343 43.775C773.923 43.685 773.503 43.565 773.083 43.415C772.673 43.265 772.328 43.055 772.048 42.785C771.778 42.505 771.643 42.13 771.643 41.66C771.643 41.01 771.893 40.47 772.393 40.04C772.893 39.6 773.593 39.38 774.493 39.38C775.323 39.38 775.993 39.58 776.503 39.98C777.023 40.38 777.328 40.945 777.418 41.675H775.888C775.838 41.355 775.688 41.105 775.438 40.925C775.198 40.745 774.873 40.655 774.463 40.655C774.063 40.655 773.753 40.74 773.533 40.91C773.313 41.07 773.203 41.28 773.203 41.54C773.203 41.8 773.353 42.005 773.653 42.155C773.963 42.305 774.368 42.44 774.868 42.56C775.368 42.67 775.828 42.8 776.248 42.95C776.678 43.09 777.023 43.3 777.283 43.58C777.543 43.86 777.673 44.27 777.673 44.81C777.683 45.49 777.418 46.055 776.878 46.505C776.348 46.955 775.623 47.18 774.703 47.18ZM782.25 47C781.52 47 780.94 46.825 780.51 46.475C780.08 46.115 779.865 45.48 779.865 44.57V40.895H778.59V39.56H779.865L780.06 37.67H781.455V39.56H783.555V40.895H781.455V44.57C781.455 44.98 781.54 45.265 781.71 45.425C781.89 45.575 782.195 45.65 782.625 45.65H783.48V47H782.25ZM788.485 47.18C787.775 47.18 787.135 47.02 786.565 46.7C786.005 46.37 785.56 45.915 785.23 45.335C784.9 44.745 784.735 44.06 784.735 43.28C784.735 42.5 784.9 41.82 785.23 41.24C785.57 40.65 786.025 40.195 786.595 39.875C787.165 39.545 787.8 39.38 788.5 39.38C789.21 39.38 789.845 39.545 790.405 39.875C790.975 40.195 791.425 40.65 791.755 41.24C792.095 41.82 792.265 42.5 792.265 43.28C792.265 44.06 792.095 44.745 791.755 45.335C791.425 45.915 790.975 46.37 790.405 46.7C789.835 47.02 789.195 47.18 788.485 47.18ZM788.485 45.815C788.865 45.815 789.215 45.72 789.535 45.53C789.865 45.34 790.13 45.06 790.33 44.69C790.53 44.31 790.63 43.84 790.63 43.28C790.63 42.72 790.53 42.255 790.33 41.885C790.14 41.505 789.88 41.22 789.55 41.03C789.23 40.84 788.88 40.745 788.5 40.745C788.12 40.745 787.765 40.84 787.435 41.03C787.115 41.22 786.855 41.505 786.655 41.885C786.455 42.255 786.355 42.72 786.355 43.28C786.355 43.84 786.455 44.31 786.655 44.69C786.855 45.06 787.115 45.34 787.435 45.53C787.755 45.72 788.105 45.815 788.485 45.815ZM793.984 47V39.56H795.394L795.514 40.865C795.744 40.405 796.079 40.045 796.519 39.785C796.969 39.515 797.484 39.38 798.064 39.38C798.964 39.38 799.669 39.66 800.179 40.22C800.699 40.78 800.959 41.615 800.959 42.725V47H799.384V42.89C799.384 41.45 798.794 40.73 797.614 40.73C797.024 40.73 796.534 40.94 796.144 41.36C795.764 41.78 795.574 42.38 795.574 43.16V47H793.984ZM806.312 47.18C805.582 47.18 804.932 47.02 804.362 46.7C803.802 46.37 803.362 45.915 803.042 45.335C802.722 44.755 802.562 44.08 802.562 43.31C802.562 42.53 802.717 41.845 803.027 41.255C803.347 40.665 803.787 40.205 804.347 39.875C804.917 39.545 805.577 39.38 806.327 39.38C807.057 39.38 807.692 39.545 808.232 39.875C808.772 40.195 809.192 40.625 809.492 41.165C809.792 41.705 809.942 42.3 809.942 42.95C809.942 43.05 809.937 43.16 809.927 43.28C809.927 43.39 809.922 43.515 809.912 43.655H804.122C804.172 44.375 804.407 44.925 804.827 45.305C805.257 45.675 805.752 45.86 806.312 45.86C806.762 45.86 807.137 45.76 807.437 45.56C807.747 45.35 807.977 45.07 808.127 44.72H809.717C809.517 45.42 809.117 46.005 808.517 46.475C807.927 46.945 807.192 47.18 806.312 47.18ZM806.312 40.685C805.782 40.685 805.312 40.845 804.902 41.165C804.492 41.475 804.242 41.945 804.152 42.575H808.352C808.322 41.995 808.117 41.535 807.737 41.195C807.357 40.855 806.882 40.685 806.312 40.685ZM817.891 47V37.79H814.786V36.5H822.571V37.79H819.481V47H817.891ZM823.999 47V36.2H825.589V40.76C825.839 40.33 826.184 39.995 826.624 39.755C827.074 39.505 827.569 39.38 828.109 39.38C828.999 39.38 829.699 39.66 830.209 40.22C830.719 40.78 830.974 41.615 830.974 42.725V47H829.399V42.89C829.399 41.45 828.824 40.73 827.674 40.73C827.074 40.73 826.574 40.94 826.174 41.36C825.784 41.78 825.589 42.38 825.589 43.16V47H823.999ZM836.326 47.18C835.596 47.18 834.946 47.02 834.376 46.7C833.816 46.37 833.376 45.915 833.056 45.335C832.736 44.755 832.576 44.08 832.576 43.31C832.576 42.53 832.731 41.845 833.041 41.255C833.361 40.665 833.801 40.205 834.361 39.875C834.931 39.545 835.591 39.38 836.341 39.38C837.071 39.38 837.706 39.545 838.246 39.875C838.786 40.195 839.206 40.625 839.506 41.165C839.806 41.705 839.956 42.3 839.956 42.95C839.956 43.05 839.951 43.16 839.941 43.28C839.941 43.39 839.936 43.515 839.926 43.655H834.136C834.186 44.375 834.421 44.925 834.841 45.305C835.271 45.675 835.766 45.86 836.326 45.86C836.776 45.86 837.151 45.76 837.451 45.56C837.761 45.35 837.991 45.07 838.141 44.72H839.731C839.531 45.42 839.131 46.005 838.531 46.475C837.941 46.945 837.206 47.18 836.326 47.18ZM836.326 40.685C835.796 40.685 835.326 40.845 834.916 41.165C834.506 41.475 834.256 41.945 834.166 42.575H838.366C838.336 41.995 838.131 41.535 837.751 41.195C837.371 40.855 836.896 40.685 836.326 40.685ZM841.606 47V39.56H843.016L843.151 40.61C843.391 40.23 843.706 39.93 844.096 39.71C844.496 39.49 844.956 39.38 845.476 39.38C846.656 39.38 847.476 39.845 847.936 40.775C848.206 40.345 848.566 40.005 849.016 39.755C849.476 39.505 849.971 39.38 850.501 39.38C851.431 39.38 852.161 39.66 852.691 40.22C853.221 40.78 853.486 41.615 853.486 42.725V47H851.896V42.89C851.896 41.45 851.346 40.73 850.246 40.73C849.686 40.73 849.226 40.94 848.866 41.36C848.516 41.78 848.341 42.38 848.341 43.16V47H846.751V42.89C846.751 41.45 846.196 40.73 845.086 40.73C844.536 40.73 844.081 40.94 843.721 41.36C843.371 41.78 843.196 42.38 843.196 43.16V47H841.606ZM858.826 47.18C858.096 47.18 857.446 47.02 856.876 46.7C856.316 46.37 855.876 45.915 855.556 45.335C855.236 44.755 855.076 44.08 855.076 43.31C855.076 42.53 855.231 41.845 855.541 41.255C855.861 40.665 856.301 40.205 856.861 39.875C857.431 39.545 858.091 39.38 858.841 39.38C859.571 39.38 860.206 39.545 860.746 39.875C861.286 40.195 861.706 40.625 862.006 41.165C862.306 41.705 862.456 42.3 862.456 42.95C862.456 43.05 862.451 43.16 862.441 43.28C862.441 43.39 862.436 43.515 862.426 43.655H856.636C856.686 44.375 856.921 44.925 857.341 45.305C857.771 45.675 858.266 45.86 858.826 45.86C859.276 45.86 859.651 45.76 859.951 45.56C860.261 45.35 860.491 45.07 860.641 44.72H862.231C862.031 45.42 861.631 46.005 861.031 46.475C860.441 46.945 859.706 47.18 858.826 47.18ZM858.826 40.685C858.296 40.685 857.826 40.845 857.416 41.165C857.006 41.475 856.756 41.945 856.666 42.575H860.866C860.836 41.995 860.631 41.535 860.251 41.195C859.871 40.855 859.396 40.685 858.826 40.685ZM867.076 47.18C866.136 47.18 865.361 46.95 864.751 46.49C864.141 46.03 863.791 45.42 863.701 44.66H865.306C865.386 45 865.576 45.295 865.876 45.545C866.176 45.785 866.571 45.905 867.061 45.905C867.541 45.905 867.891 45.805 868.111 45.605C868.331 45.405 868.441 45.175 868.441 44.915C868.441 44.535 868.286 44.28 867.976 44.15C867.676 44.01 867.256 43.885 866.716 43.775C866.296 43.685 865.876 43.565 865.456 43.415C865.046 43.265 864.701 43.055 864.421 42.785C864.151 42.505 864.016 42.13 864.016 41.66C864.016 41.01 864.266 40.47 864.766 40.04C865.266 39.6 865.966 39.38 866.866 39.38C867.696 39.38 868.366 39.58 868.876 39.98C869.396 40.38 869.701 40.945 869.791 41.675H868.261C868.211 41.355 868.061 41.105 867.811 40.925C867.571 40.745 867.246 40.655 866.836 40.655C866.436 40.655 866.126 40.74 865.906 40.91C865.686 41.07 865.576 41.28 865.576 41.54C865.576 41.8 865.726 42.005 866.026 42.155C866.336 42.305 866.741 42.44 867.241 42.56C867.741 42.67 868.201 42.8 868.621 42.95C869.051 43.09 869.396 43.3 869.656 43.58C869.916 43.86 870.046 44.27 870.046 44.81C870.056 45.49 869.791 46.055 869.251 46.505C868.721 46.955 867.996 47.18 867.076 47.18ZM874.946 47L878.816 36.5H880.556L884.396 47H882.716L881.816 44.435H877.526L876.626 47H874.946ZM877.976 43.175H881.366L879.671 38.39L877.976 43.175ZM885.8 47V36.2H887.39V47H885.8ZM889.404 47V36.2H890.994V47H889.404ZM896.847 47V36.5H900.462C901.292 36.5 901.972 36.64 902.502 36.92C903.042 37.2 903.442 37.58 903.702 38.06C903.962 38.53 904.092 39.055 904.092 39.635C904.092 40.285 903.917 40.875 903.567 41.405C903.227 41.935 902.692 42.315 901.962 42.545L904.197 47H902.352L900.312 42.77H898.437V47H896.847ZM898.437 41.57H900.372C901.092 41.57 901.617 41.395 901.947 41.045C902.287 40.695 902.457 40.24 902.457 39.68C902.457 39.12 902.292 38.675 901.962 38.345C901.632 38.005 901.097 37.835 900.357 37.835H898.437V41.57ZM906.813 38.15C906.513 38.15 906.263 38.06 906.063 37.88C905.873 37.69 905.778 37.455 905.778 37.175C905.778 36.895 905.873 36.665 906.063 36.485C906.263 36.295 906.513 36.2 906.813 36.2C907.113 36.2 907.358 36.295 907.548 36.485C907.748 36.665 907.848 36.895 907.848 37.175C907.848 37.455 907.748 37.69 907.548 37.88C907.358 38.06 907.113 38.15 906.813 38.15ZM906.018 47V39.56H907.608V47H906.018ZM912.752 44.72C912.362 44.72 912.002 44.675 911.672 44.585L911.027 45.215C911.137 45.285 911.272 45.345 911.432 45.395C911.592 45.445 911.817 45.49 912.107 45.53C912.397 45.57 912.792 45.61 913.292 45.65C914.282 45.74 914.997 45.98 915.437 46.37C915.877 46.75 916.097 47.26 916.097 47.9C916.097 48.34 915.977 48.755 915.737 49.145C915.507 49.545 915.142 49.865 914.642 50.105C914.152 50.355 913.522 50.48 912.752 50.48C911.712 50.48 910.867 50.28 910.217 49.88C909.577 49.49 909.257 48.895 909.257 48.095C909.257 47.785 909.337 47.475 909.497 47.165C909.667 46.865 909.932 46.58 910.292 46.31C910.082 46.22 909.897 46.125 909.737 46.025C909.587 45.915 909.452 45.805 909.332 45.695V45.335L910.622 44.015C910.042 43.515 909.752 42.86 909.752 42.05C909.752 41.56 909.867 41.115 910.097 40.715C910.337 40.305 910.682 39.98 911.132 39.74C911.582 39.5 912.122 39.38 912.752 39.38C913.172 39.38 913.562 39.44 913.922 39.56H916.697V40.61L915.377 40.685C915.617 41.095 915.737 41.55 915.737 42.05C915.737 42.55 915.617 43 915.377 43.4C915.147 43.8 914.807 44.12 914.357 44.36C913.917 44.6 913.382 44.72 912.752 44.72ZM912.752 43.475C913.212 43.475 913.582 43.355 913.862 43.115C914.152 42.865 914.297 42.515 914.297 42.065C914.297 41.605 914.152 41.255 913.862 41.015C913.582 40.775 913.212 40.655 912.752 40.655C912.282 40.655 911.902 40.775 911.612 41.015C911.332 41.255 911.192 41.605 911.192 42.065C911.192 42.515 911.332 42.865 911.612 43.115C911.902 43.355 912.282 43.475 912.752 43.475ZM910.757 47.945C910.757 48.375 910.947 48.695 911.327 48.905C911.707 49.125 912.182 49.235 912.752 49.235C913.302 49.235 913.747 49.115 914.087 48.875C914.427 48.645 914.597 48.335 914.597 47.945C914.597 47.655 914.482 47.405 914.252 47.195C914.022 46.995 913.587 46.87 912.947 46.82C912.467 46.79 912.042 46.745 911.672 46.685C911.322 46.875 911.082 47.08 910.952 47.3C910.822 47.52 910.757 47.735 910.757 47.945ZM918.115 47V36.2H919.705V40.76C919.955 40.33 920.3 39.995 920.74 39.755C921.19 39.505 921.685 39.38 922.225 39.38C923.115 39.38 923.815 39.66 924.325 40.22C924.835 40.78 925.09 41.615 925.09 42.725V47H923.515V42.89C923.515 41.45 922.94 40.73 921.79 40.73C921.19 40.73 920.69 40.94 920.29 41.36C919.9 41.78 919.705 42.38 919.705 43.16V47H918.115ZM930.083 47C929.353 47 928.773 46.825 928.343 46.475C927.913 46.115 927.698 45.48 927.698 44.57V40.895H926.423V39.56H927.698L927.893 37.67H929.288V39.56H931.388V40.895H929.288V44.57C929.288 44.98 929.373 45.265 929.543 45.425C929.723 45.575 930.028 45.65 930.458 45.65H931.313V47H930.083ZM936.866 47V36.5H940.481C941.311 36.5 941.991 36.64 942.521 36.92C943.061 37.2 943.461 37.58 943.721 38.06C943.981 38.53 944.111 39.055 944.111 39.635C944.111 40.285 943.936 40.875 943.586 41.405C943.246 41.935 942.711 42.315 941.981 42.545L944.216 47H942.371L940.331 42.77H938.456V47H936.866ZM938.456 41.57H940.391C941.111 41.57 941.636 41.395 941.966 41.045C942.306 40.695 942.476 40.24 942.476 39.68C942.476 39.12 942.311 38.675 941.981 38.345C941.651 38.005 941.116 37.835 940.376 37.835H938.456V41.57ZM948.958 47.18C948.228 47.18 947.578 47.02 947.008 46.7C946.448 46.37 946.008 45.915 945.688 45.335C945.368 44.755 945.208 44.08 945.208 43.31C945.208 42.53 945.363 41.845 945.673 41.255C945.993 40.665 946.433 40.205 946.993 39.875C947.563 39.545 948.223 39.38 948.973 39.38C949.703 39.38 950.338 39.545 950.878 39.875C951.418 40.195 951.838 40.625 952.138 41.165C952.438 41.705 952.588 42.3 952.588 42.95C952.588 43.05 952.583 43.16 952.573 43.28C952.573 43.39 952.568 43.515 952.558 43.655H946.768C946.818 44.375 947.053 44.925 947.473 45.305C947.903 45.675 948.398 45.86 948.958 45.86C949.408 45.86 949.783 45.76 950.083 45.56C950.393 45.35 950.623 45.07 950.773 44.72H952.363C952.163 45.42 951.763 46.005 951.163 46.475C950.573 46.945 949.838 47.18 948.958 47.18ZM948.958 40.685C948.428 40.685 947.958 40.845 947.548 41.165C947.138 41.475 946.888 41.945 946.798 42.575H950.998C950.968 41.995 950.763 41.535 950.383 41.195C950.003 40.855 949.528 40.685 948.958 40.685ZM957.208 47.18C956.268 47.18 955.493 46.95 954.883 46.49C954.273 46.03 953.923 45.42 953.833 44.66H955.438C955.518 45 955.708 45.295 956.008 45.545C956.308 45.785 956.703 45.905 957.193 45.905C957.673 45.905 958.023 45.805 958.243 45.605C958.463 45.405 958.573 45.175 958.573 44.915C958.573 44.535 958.418 44.28 958.108 44.15C957.808 44.01 957.388 43.885 956.848 43.775C956.428 43.685 956.008 43.565 955.588 43.415C955.178 43.265 954.833 43.055 954.553 42.785C954.283 42.505 954.148 42.13 954.148 41.66C954.148 41.01 954.398 40.47 954.898 40.04C955.398 39.6 956.098 39.38 956.998 39.38C957.828 39.38 958.498 39.58 959.008 39.98C959.528 40.38 959.833 40.945 959.923 41.675H958.393C958.343 41.355 958.193 41.105 957.943 40.925C957.703 40.745 957.378 40.655 956.968 40.655C956.568 40.655 956.258 40.74 956.038 40.91C955.818 41.07 955.708 41.28 955.708 41.54C955.708 41.8 955.858 42.005 956.158 42.155C956.468 42.305 956.873 42.44 957.373 42.56C957.873 42.67 958.333 42.8 958.753 42.95C959.183 43.09 959.528 43.3 959.788 43.58C960.048 43.86 960.178 44.27 960.178 44.81C960.188 45.49 959.923 46.055 959.383 46.505C958.853 46.955 958.128 47.18 957.208 47.18ZM965.394 47.18C964.664 47.18 964.014 47.02 963.444 46.7C962.884 46.37 962.444 45.915 962.124 45.335C961.804 44.755 961.644 44.08 961.644 43.31C961.644 42.53 961.799 41.845 962.109 41.255C962.429 40.665 962.869 40.205 963.429 39.875C963.999 39.545 964.659 39.38 965.409 39.38C966.139 39.38 966.774 39.545 967.314 39.875C967.854 40.195 968.274 40.625 968.574 41.165C968.874 41.705 969.024 42.3 969.024 42.95C969.024 43.05 969.019 43.16 969.009 43.28C969.009 43.39 969.004 43.515 968.994 43.655H963.204C963.254 44.375 963.489 44.925 963.909 45.305C964.339 45.675 964.834 45.86 965.394 45.86C965.844 45.86 966.219 45.76 966.519 45.56C966.829 45.35 967.059 45.07 967.209 44.72H968.799C968.599 45.42 968.199 46.005 967.599 46.475C967.009 46.945 966.274 47.18 965.394 47.18ZM965.394 40.685C964.864 40.685 964.394 40.845 963.984 41.165C963.574 41.475 963.324 41.945 963.234 42.575H967.434C967.404 41.995 967.199 41.535 966.819 41.195C966.439 40.855 965.964 40.685 965.394 40.685ZM970.673 47V39.56H972.098L972.233 40.97C972.493 40.48 972.853 40.095 973.313 39.815C973.783 39.525 974.348 39.38 975.008 39.38V41.045H974.573C974.133 41.045 973.738 41.12 973.388 41.27C973.048 41.41 972.773 41.655 972.563 42.005C972.363 42.345 972.263 42.82 972.263 43.43V47H970.673ZM978.457 47L975.667 39.56H977.332L979.402 45.485L981.472 39.56H983.122L980.347 47H978.457ZM987.527 47.18C986.797 47.18 986.147 47.02 985.577 46.7C985.017 46.37 984.577 45.915 984.257 45.335C983.937 44.755 983.777 44.08 983.777 43.31C983.777 42.53 983.932 41.845 984.242 41.255C984.562 40.665 985.002 40.205 985.562 39.875C986.132 39.545 986.792 39.38 987.542 39.38C988.272 39.38 988.907 39.545 989.447 39.875C989.987 40.195 990.407 40.625 990.707 41.165C991.007 41.705 991.157 42.3 991.157 42.95C991.157 43.05 991.152 43.16 991.142 43.28C991.142 43.39 991.137 43.515 991.127 43.655H985.337C985.387 44.375 985.622 44.925 986.042 45.305C986.472 45.675 986.967 45.86 987.527 45.86C987.977 45.86 988.352 45.76 988.652 45.56C988.962 45.35 989.192 45.07 989.342 44.72H990.932C990.732 45.42 990.332 46.005 989.732 46.475C989.142 46.945 988.407 47.18 987.527 47.18ZM987.527 40.685C986.997 40.685 986.527 40.845 986.117 41.165C985.707 41.475 985.457 41.945 985.367 42.575H989.567C989.537 41.995 989.332 41.535 988.952 41.195C988.572 40.855 988.097 40.685 987.527 40.685ZM996.197 47.18C995.477 47.18 994.842 47.01 994.292 46.67C993.742 46.33 993.312 45.865 993.002 45.275C992.692 44.685 992.537 44.015 992.537 43.265C992.537 42.515 992.692 41.85 993.002 41.27C993.312 40.68 993.742 40.22 994.292 39.89C994.852 39.55 995.492 39.38 996.212 39.38C996.802 39.38 997.317 39.495 997.757 39.725C998.207 39.955 998.557 40.28 998.807 40.7V36.2H1000.4V47H998.972L998.807 45.845C998.567 46.195 998.237 46.505 997.817 46.775C997.397 47.045 996.857 47.18 996.197 47.18ZM996.482 45.8C997.162 45.8 997.717 45.565 998.147 45.095C998.587 44.625 998.807 44.02 998.807 43.28C998.807 42.53 998.587 41.925 998.147 41.465C997.717 40.995 997.162 40.76 996.482 40.76C995.802 40.76 995.242 40.995 994.802 41.465C994.362 41.925 994.142 42.53 994.142 43.28C994.142 43.77 994.242 44.205 994.442 44.585C994.642 44.965 994.917 45.265 995.267 45.485C995.627 45.695 996.032 45.8 996.482 45.8ZM1003.03 47.09C1002.73 47.09 1002.48 46.995 1002.28 46.805C1002.09 46.605 1002 46.37 1002 46.1C1002 45.82 1002.09 45.585 1002.28 45.395C1002.48 45.195 1002.73 45.095 1003.03 45.095C1003.33 45.095 1003.58 45.195 1003.77 45.395C1003.96 45.585 1004.05 45.82 1004.05 46.1C1004.05 46.37 1003.96 46.605 1003.77 46.805C1003.58 46.995 1003.33 47.09 1003.03 47.09Z" fill="#999999"/>
</svg>
